<?xml version="1.0" standalone="no"?>
<!DOCTYPE svg PUBLIC "-//W3C//DTD SVG 20010904//EN"
 "http://www.w3.org/TR/2001/REC-SVG-20010904/DTD/svg10.dtd">
<svg version="1.0" xmlns="http://www.w3.org/2000/svg"
 width="320.000000pt" height="320.000000pt" viewBox="0 0 320.000000 320.000000"
 preserveAspectRatio="xMidYMid meet">

<g transform="translate(0.000000,320.000000) scale(0.100000,-0.100000)"
fill="#000000" stroke="none">
<path d="M773 2478 c3 -7 61 -141 130 -298 l125 -285 -124 -565 c-68 -311
-127 -580 -130 -598 l-6 -32 130 0 131 0 99 253 c55 138 164 417 243 619 79
201 145 365 147 364 1 -2 -50 -279 -113 -616 -63 -337 -115 -614 -115 -616 0
-3 59 -3 132 -2 l132 3 230 657 c127 361 232 651 233 645 2 -7 -44 -300 -101
-652 -56 -352 -101 -643 -99 -647 2 -5 60 -8 129 -8 119 0 125 1 134 23 22 49
471 1459 468 1468 -2 5 -108 74 -236 154 l-233 145 -130 0 c-71 0 -129 -3
-129 -6 0 -3 40 -76 89 -163 48 -86 94 -167 101 -180 15 -29 46 -52 -260 193
l-195 156 -133 0 -133 0 117 -227 118 -228 -60 52 c-32 29 -142 131 -244 227
l-185 175 -134 1 c-103 0 -132 -3 -128 -12z"/>
</g>
</svg>
