<?xml version="1.0" standalone="no"?>
<!DOCTYPE svg PUBLIC "-//W3C//DTD SVG 20010904//EN"
 "http://www.w3.org/TR/2001/REC-SVG-20010904/DTD/svg10.dtd">
<svg version="1.0" xmlns="http://www.w3.org/2000/svg"
 width="256.000000pt" height="256.000000pt" viewBox="0 0 256.000000 256.000000"
 preserveAspectRatio="xMidYMid meet">

<g transform="translate(0.000000,256.000000) scale(0.100000,-0.100000)"
fill="#000000" stroke="none">
<path d="M975 2359 c-324 -21 -608 -44 -630 -50 -53 -15 -129 -91 -144 -144
-7 -28 -11 -265 -11 -762 l0 -722 175 -225 c96 -123 189 -236 207 -249 68 -52
56 -51 833 -13 396 20 737 38 758 41 80 11 150 65 184 140 17 37 18 92 21 789
3 837 5 811 -66 878 -51 48 -485 318 -547 340 -66 23 -84 22 -780 -23z m746
-137 c67 -32 259 -157 259 -169 0 -7 -30 -14 -82 -18 -172 -13 -1131 -65
-1199 -65 l-72 0 -104 77 c-62 47 -102 84 -101 92 2 9 19 18 38 22 47 10 1036
75 1175 77 29 1 65 -6 86 -16z m448 -347 c16 -8 31 -25 35 -37 8 -30 6 -1171
-3 -1307 -6 -96 -8 -105 -31 -122 -22 -15 -100 -21 -665 -48 -352 -17 -680
-34 -730 -37 -83 -5 -92 -4 -112 15 l-23 22 0 703 c0 691 0 703 20 721 18 16
94 23 733 60 391 24 720 43 730 44 10 0 31 -6 46 -14z"/>
<path d="M1935 1640 c-27 -5 -93 -9 -145 -9 -78 -1 -104 -5 -140 -23 -66 -33
-63 -51 10 -71 33 -10 63 -23 66 -30 2 -7 3 -131 2 -277 l-3 -265 -220 319
c-120 175 -226 321 -233 324 -8 3 -82 1 -164 -5 -123 -8 -154 -13 -176 -30
-31 -23 -60 -69 -50 -78 4 -4 31 -10 60 -14 l53 -6 3 -425 2 -426 -42 -14
c-28 -10 -48 -26 -61 -47 -24 -42 -16 -54 26 -42 17 5 77 9 132 9 114 1 167
10 204 38 40 30 32 44 -34 61 l-60 16 -3 329 c-1 181 -1 328 1 325 2 -2 109
-167 236 -367 130 -203 244 -370 259 -380 14 -9 44 -17 67 -16 55 0 140 39
154 70 8 17 11 162 11 478 l0 452 41 18 c22 10 49 32 59 49 18 28 18 49 2 46
-4 -1 -29 -5 -57 -9z"/>
</g>
</svg>
